<svg xmlns="http://www.w3.org/2000/svg" width="18" height="22" viewBox="0 0 18 22"><path d="M17,5H7V7H17Z" transform="translate(-3 -1)"/><path d="M7,9H9v2H7Z" transform="translate(-3 -1)"/><path d="M9,13H7v2H9Z" transform="translate(-3 -1)"/><path d="M7,17H9v2H7Z" transform="translate(-3 -1)"/><path d="M13,9H11v2h2Z" transform="translate(-3 -1)"/><path d="M11,13h2v2H11Z" transform="translate(-3 -1)"/><path d="M13,17H11v2h2Z" transform="translate(-3 -1)"/><path d="M15,9h2v2H15Z" transform="translate(-3 -1)"/><path d="M17,13H15v6h2Z" transform="translate(-3 -1)"/><path d="M3,3A2,2,0,0,1,5,1H19a2,2,0,0,1,2,2V21a2,2,0,0,1-2,2H5a2,2,0,0,1-2-2ZM5,3H19V21H5Z" transform="translate(-3 -1)" fill-rule="evenodd"/></svg>